<svg xmlns="http://www.w3.org/2000/svg" viewBox="0 0 48 48" width="48" height="48">
  <defs>
    <linearGradient id="hex" x1="0" y1="0" x2="1" y2="1">
      <stop offset="0" stop-color="#0e2433" />
      <stop offset="1" stop-color="#171633" />
    </linearGradient>
  </defs>
  <!-- Hexágono do brand-sigil (mesmo formato do clip-path) -->
  <polygon points="24,0 43.68,11.52 43.68,35.52 24,48 4.32,35.52 4.32,11.52"
           fill="url(#hex)" stroke="#67e8f9" stroke-width="1.6" />
  <!-- Ícone Swords (lucide), centralizado e escalado para ~45% da caixa -->
  <g transform="translate(13.2 13.2) scale(0.9)"
     fill="none" stroke="#67e8f9" stroke-width="2"
     stroke-linecap="round" stroke-linejoin="round">
    <polyline points="14.5 17.5 3 6 3 3 6 3 17.5 14.5" />
    <line x1="13" x2="19" y1="19" y2="13" />
    <line x1="16" x2="20" y1="16" y2="20" />
    <line x1="19" x2="21" y1="21" y2="19" />
    <polyline points="14.5 6.5 18 3 21 3 21 6 17.5 9.5" />
    <line x1="5" x2="9" y1="14" y2="18" />
    <line x1="7" x2="4" y1="17" y2="20" />
    <line x1="3" x2="5" y1="19" y2="21" />
  </g>
</svg>
